<svg xmlns="http://www.w3.org/2000/svg" width="48" height="48" viewBox="0 0 48 48"><defs><style>.cls-1{fill:#d0d7df;}.cls-2{fill:#f1f2f2;}.cls-3{fill:#fed049;}.cls-4{fill:#474c54;}</style></defs><title>6-File-Happy</title><g id="_6-File-Happy" data-name="6-File-Happy"><path class="cls-1" d="M47,13H39a4,4,0,0,1-4-4V1Z"/><path class="cls-2" d="M47,13V43a4,4,0,0,1-4,4H9c-4,0-4-4-4-4V5A4,4,0,0,1,9,1H35V9a4,4,0,0,0,4,4h8Z"/><circle class="cls-3" cx="14" cy="34" r="13"/><path class="cls-4" d="M47.707,12.293l-12-12A1.009,1.009,0,0,0,35,0H9A5.006,5.006,0,0,0,4,5V18a1,1,0,0,0,2,0V5A3,3,0,0,1,9,2H34V9a5.006,5.006,0,0,0,5,5h2a1,1,0,0,0,0-2H39a3,3,0,0,1-3-3V3.414l10,10V43a3,3,0,0,1-3,3H27a1,1,0,0,0,0,2H43a5.006,5.006,0,0,0,5-5V13A1,1,0,0,0,47.707,12.293Z"/><path class="cls-4" d="M14,20A14,14,0,1,0,28,34,14.015,14.015,0,0,0,14,20Zm0,26A12,12,0,1,1,26,34,12.013,12.013,0,0,1,14,46Z"/><path class="cls-4" d="M20,33a1,1,0,0,0-1,1A5,5,0,0,1,9,34a1,1,0,0,0-2,0,7,7,0,0,0,14,0A1,1,0,0,0,20,33Z"/><path class="cls-4" d="M11,31a1,1,0,0,0,1-1V28a1,1,0,0,0-2,0v2A1,1,0,0,0,11,31Z"/><path class="cls-4" d="M17,31a1,1,0,0,0,1-1V28a1,1,0,0,0-2,0v2A1,1,0,0,0,17,31Z"/></g></svg>
